<svg xmlns="http://www.w3.org/2000/svg" width="240" height="100" viewBox="0 0 240 100" fill="none" role="img" aria-label="Pocket Auto"><path d="M30 25h111l17 15v21H50L29 48z" fill="#E0E9DC"/><path d="M25 29h15v25H25zM31 21h108v9H31z" fill="#E99B88"/><path d="m130 54 21 5 6 25-26 6-8-22zM98 52l24 1-8 42H95z" fill="#233C43"/><path d="M93 88h25v8H93z" fill="#E99B88"/><path d="M157 32h55v6h-55zM207 31h9v27h-9zM115 55v15h17v-6h-11v-9z" fill="#809BA0"/><path d="M91 8h23v16H91z" fill="#233C43"/><path d="M95 10h15v10H95z" fill="#B8FFF1"/><path d="M123 32h5v18h-5zm10 0h5v18h-5zm10 0h5v18h-5z" fill="#334B50"/></svg>
